<?xml version="1.0" standalone="no"?><!DOCTYPE svg PUBLIC "-//W3C//DTD SVG 1.1//EN" "http://www.w3.org/Graphics/SVG/1.1/DTD/svg11.dtd"><svg t="1582901845535" class="icon" viewBox="0 0 1024 1024" version="1.1" xmlns="http://www.w3.org/2000/svg" p-id="2302" width="32" height="32" xmlns:xlink="http://www.w3.org/1999/xlink"><defs><style type="text/css"></style></defs><path d="M839.600874 430.20729h-72.589955V261.461448c0-141.567613-114.733412-256.301025-256.301025-256.301025s-256.301025 114.733412-256.301025 256.301025v168.745842h-72.41794c-34.918864 0-63.301193 28.382328-63.301193 63.301193v462.201915c0 16.857383 6.70855 32.854695 18.577524 44.895683 11.868974 11.868974 28.0383 18.577524 44.895683 18.577524h658.470015c16.857383 0 32.854695-6.70855 44.895683-18.577524 11.868974-11.868974 18.577524-28.0383 18.577524-44.895683V493.508483c0-16.857383-6.70855-33.198723-18.749538-45.067697-12.55703-11.868974-28.898371-18.40551-45.755753-18.233496z m-170.982026 0H352.800941v-164.789517c0-87.211154 70.697799-157.908953 157.908953-157.908954 87.211154 0 157.908953 70.697799 157.908954 157.908954v164.789517z m0 0" p-id="2303" fill="#1afa29"></path></svg>