<?xml version="1.0" standalone="no"?><!DOCTYPE svg PUBLIC "-//W3C//DTD SVG 1.1//EN" "http://www.w3.org/Graphics/SVG/1.1/DTD/svg11.dtd"><svg t="1581414234336" class="icon" viewBox="0 0 1024 1024" version="1.1" xmlns="http://www.w3.org/2000/svg" p-id="6847" width="32" height="32" xmlns:xlink="http://www.w3.org/1999/xlink"><defs><style type="text/css"></style></defs><path d="M897.994168 166.32205L363.250164 702.551894 126.547161 461.247082c-28.444842-28.892027-74.788334-29.338189-103.751992-1.409092-29.114085 27.999704-29.711695 74.119091-1.487887 102.788038l288.835337 294.558689c0.149403 0.294712 0.446162 0.294712 0.596588 0.445138 0.149403 0.151449 0.222057 0.596588 0.373507 0.596587 4.674463 4.753257 10.5421 7.572466 16.041348 10.764158 2.746554 1.487887 4.976338 3.789303 7.795546 4.903684 8.915044 3.637854 18.270109 5.349845 27.704992 5.349844a74.531484 74.531484 0 0 0 27.403117-5.200442c2.969635-1.192152 5.125741-3.493567 7.801686-4.90266 5.565762-3.048429 11.210319-5.794983 15.889899-10.475585 0.151449 0 0.224104-0.440022 0.446161-0.440022 0.151449-0.301875 0.37453-0.446162 0.596588-0.596587L1002.342748 268.663926c28.374234-28.668946 28.15013-74.638931-0.668219-102.860693-28.668946-28.222785-75.234495-28.077475-103.680361 0.518817z m0 0" fill="#527fe5" p-id="6848"></path></svg>