<?xml version="1.0" standalone="no"?><!DOCTYPE svg PUBLIC "-//W3C//DTD SVG 1.1//EN" "http://www.w3.org/Graphics/SVG/1.1/DTD/svg11.dtd"><svg t="1581758025297" class="icon" viewBox="0 0 1024 1024" version="1.1" xmlns="http://www.w3.org/2000/svg" p-id="6843" xmlns:xlink="http://www.w3.org/1999/xlink" width="32" height="32"><defs><style type="text/css"></style></defs><path d="M375.459446 989.420308a67.426462 67.426462 0 0 1-68.214154-66.63877c0-36.864 30.483692-66.638769 68.214154-66.638769h273.014154c37.730462 0 68.214154 29.774769 68.214154 66.638769a67.426462 67.426462 0 0 1-68.214154 66.63877H375.459446zM529.295754 10.476308l4.962461 4.568615 365.095385 415.980308c10.870154 12.366769 7.876923 22.685538-6.144 24.812307l-5.828923 0.472616H750.8736c-16.777846 0-30.72 11.815385-33.634462 27.332923l-0.551384 5.986461V756.184615c0 16.305231-12.051692 29.932308-27.963077 32.768l-6.144 0.551385H341.352369a34.028308 34.028308 0 0 1-33.555692-27.332923L307.166523 756.184615V489.629538a33.634462 33.634462 0 0 0-28.041846-32.768l-6.144-0.551384H136.552369c-16.699077 0-22.764308-9.058462-15.281231-20.795077l3.387077-4.489846L489.7536 15.044923A28.750769 28.750769 0 0 1 529.295754 10.476308z" fill="#507ce8" p-id="6844"></path></svg>